<svg width="230" height="223" viewBox="0 0 230 223" fill="none" xmlns="http://www.w3.org/2000/svg">
<path fill-rule="evenodd" clip-rule="evenodd" d="M16.8364 182.295L73.0158 127.423L0 101.864L25.1976 46.2797L89.3149 78.3036L83.8032 0H146.249L140.748 78.1434L204.889 45.5034L230 101.942L157.671 126.856L213.835 182.337L166.865 223L115.642 155.64L63.8038 222.956L16.8364 182.295ZM115.694 138.48L168.441 207.845L198.488 181.833L138.395 122.472L215.848 95.7936L199.824 59.7784L129.048 95.7936L135.057 10.4214H94.9953L101.005 95.7936L30.2291 60.4442L14.2044 95.7936L92.3245 123.139L32.2321 181.833L62.2783 207.845L115.694 138.48Z" fill="#FF0000"/>
</svg>
